<?xml version="1.0" encoding="UTF-8"?>
<!DOCTYPE svg PUBLIC "-//W3C//DTD SVG 1.1//EN" "http://www.w3.org/Graphics/SVG/1.1/DTD/svg11.dtd">
<svg xmlns="http://www.w3.org/2000/svg" version="1.1" width="512px" height="512px"
     style="shape-rendering:geometricPrecision; text-rendering:geometricPrecision; image-rendering:optimizeQuality; fill-rule:evenodd; clip-rule:evenodd"
     xmlns:xlink="http://www.w3.org/1999/xlink">
    <g>
        <path style="opacity:0.98" fill="#82d5f2"
              d="M 200.5,-0.5 C 201.167,-0.5 201.833,-0.5 202.5,-0.5C 211.161,13.4807 219.327,27.814 227,42.5C 231.092,56.8068 226.925,67.9734 214.5,76C 198.045,81.9631 185.545,77.4631 177,62.5C 175,55.5 175,48.5 177,41.5C 185.111,27.6071 192.944,13.6071 200.5,-0.5 Z"/>
    </g>
    <g>
        <path style="opacity:0.985" fill="#baeefc"
              d="M 343.5,35.5 C 357.476,56.0927 369.976,77.7594 381,100.5C 385.073,122.524 376.906,138.024 356.5,147C 326.839,152.504 309.839,140.337 305.5,110.5C 306.156,103.033 308.322,96.0329 312,89.5C 322.727,71.6125 333.227,53.6125 343.5,35.5 Z"/>
    </g>
    <g>
        <path style="opacity:0.995" fill="#82d5f2"
              d="M 336.5,309.5 C 335.833,309.5 335.5,309.833 335.5,310.5C 321.948,347.121 295.615,366.454 256.5,368.5C 216.046,366.95 188.713,347.283 174.5,309.5C 168.44,289.12 169.607,269.12 178,249.5C 203.581,204.67 229.414,160.003 255.5,115.5C 281.586,160.003 307.419,204.67 333,249.5C 341.393,269.12 342.56,289.12 336.5,309.5 Z"/>
    </g>
    <g>
        <path style="opacity:1" fill="#67c6e4"
              d="M 298.5,303.5 C 304.629,302.555 308.296,305.055 309.5,311C 302.282,327.462 289.948,338.129 272.5,343C 267.573,344.266 262.573,345.099 257.5,345.5C 251.744,346.13 248.411,343.63 247.5,338C 247.795,335.077 249.129,332.743 251.5,331C 267.242,330.761 280.409,324.927 291,313.5C 292.947,309.724 295.447,306.39 298.5,303.5 Z"/>
    </g>
    <g>
        <path style="opacity:0.996" fill="#b9edfb"
              d="M 174.5,309.5 C 188.713,347.283 216.046,366.95 256.5,368.5C 295.615,366.454 321.948,347.121 335.5,310.5C 351.394,310.53 367.06,312.363 382.5,316C 391.494,317.751 398.994,321.918 405,328.5C 406.65,334.926 405.15,340.426 400.5,345C 396.312,347.062 391.979,348.729 387.5,350C 380.419,350.95 373.419,352.283 366.5,354C 357.266,356.304 353.433,362.137 355,371.5C 356.167,374 358,375.833 360.5,377C 367.919,379.885 375.586,381.885 383.5,383C 406.89,384.782 430.223,387.116 453.5,390C 462.047,391.398 469.547,394.898 476,400.5C 478.321,405.584 477.655,410.25 474,414.5C 469.307,417.929 464.141,420.429 458.5,422C 449.903,423.77 441.236,425.103 432.5,426C 421.626,426.141 410.959,426.974 400.5,428.5C 391.833,428.5 383.167,428.5 374.5,428.5C 356.644,427.146 338.644,427.313 320.5,429C 312.16,429.588 304.994,432.755 299,438.5C 296.188,444.902 297.355,450.402 302.5,455C 311.141,458.797 320.141,461.464 329.5,463C 336.435,464.621 341.602,468.454 345,474.5C 347.04,482.578 344.54,488.745 337.5,493C 322.233,500.15 306.233,504.817 289.5,507C 275.023,508.604 260.689,510.104 246.5,511.5C 239.167,511.5 231.833,511.5 224.5,511.5C 201.996,510.021 179.663,506.521 157.5,501C 147.551,498.612 139.051,493.779 132,486.5C 128.847,474.308 133.347,466.475 145.5,463C 153.565,461.254 161.565,459.254 169.5,457C 178.095,453.855 180.928,448.022 178,439.5C 175.736,436.567 172.902,434.4 169.5,433C 162.99,430.898 156.323,429.565 149.5,429C 123.5,428.667 97.5,428.333 71.5,428C 51.8664,427.976 32.5331,425.642 13.5,421C 7.44251,419.079 2.77585,415.579 -0.5,410.5C -0.5,407.5 -0.5,404.5 -0.5,401.5C 4.01758,395.732 10.0176,392.232 17.5,391C 45.4149,387.007 73.4149,383.674 101.5,381C 108.89,380.096 115.39,377.263 121,372.5C 123.039,362.461 118.872,356.294 108.5,354C 99.4095,352.382 90.4095,350.382 81.5,348C 72.9169,344.744 69.4169,338.577 71,329.5C 76.2155,322.129 83.3821,317.629 92.5,316C 119.553,310.496 146.886,308.329 174.5,309.5 Z"/>
    </g>
    <g>
        <path style="opacity:1" fill="#a3e1f8"
              d="M 335.5,310.5 C 335.5,309.833 335.833,309.5 336.5,309.5C 364.114,308.329 391.447,310.496 418.5,316C 427.618,317.629 434.785,322.129 440,329.5C 441.583,338.577 438.083,344.744 429.5,348C 420.591,350.382 411.591,352.382 402.5,354C 392.128,356.294 387.961,362.461 390,372.5C 395.61,377.263 402.11,380.096 409.5,381C 437.585,383.674 465.585,387.007 493.5,391C 500.971,392.227 506.971,395.727 511.5,401.5C 511.5,404.5 511.5,407.5 511.5,410.5C 508.224,415.579 503.557,419.079 497.5,421C 478.467,425.642 459.134,427.976 439.5,428C 426.504,428.5 413.504,428.667 400.5,428.5C 410.959,426.974 421.626,426.141 432.5,426C 441.236,425.103 449.903,423.77 458.5,422C 464.141,420.429 469.307,417.929 474,414.5C 477.655,410.25 478.321,405.584 476,400.5C 469.547,394.898 462.047,391.398 453.5,390C 430.223,387.116 406.89,384.782 383.5,383C 375.586,381.885 367.919,379.885 360.5,377C 358,375.833 356.167,374 355,371.5C 353.433,362.137 357.266,356.304 366.5,354C 373.419,352.283 380.419,350.95 387.5,350C 391.979,348.729 396.312,347.062 400.5,345C 405.15,340.426 406.65,334.926 405,328.5C 398.994,321.918 391.494,317.751 382.5,316C 367.06,312.363 351.394,310.53 335.5,310.5 Z"/>
    </g>
    <g>
        <path style="opacity:1" fill="#a3e1f8"
              d="M 374.5,428.5 C 363.259,428.28 352.259,429.78 341.5,433C 330.099,438.663 328.766,445.996 337.5,455C 348.367,458.709 359.367,462.042 370.5,465C 381.48,471.754 383.147,480.254 375.5,490.5C 367.075,496.543 357.742,500.709 347.5,503C 328.214,507.158 308.881,509.991 289.5,511.5C 275.167,511.5 260.833,511.5 246.5,511.5C 260.689,510.104 275.023,508.604 289.5,507C 306.233,504.817 322.233,500.15 337.5,493C 344.54,488.745 347.04,482.578 345,474.5C 341.602,468.454 336.435,464.621 329.5,463C 320.141,461.464 311.141,458.797 302.5,455C 297.355,450.402 296.188,444.902 299,438.5C 304.994,432.755 312.16,429.588 320.5,429C 338.644,427.313 356.644,427.146 374.5,428.5 Z"/>
    </g>
</svg>
